<svg xml:space="preserve" style="enable-background:new 0 0 938.7 146.4;" viewBox="0 0 938.7 146.4" y="0px" x="0px" xmlns:xlink="http://www.w3.org/1999/xlink" xmlns="http://www.w3.org/2000/svg" id="hrz" version="1.1">
<style type="text/css">
	.st0{fill:#FA4616;}
</style>
<g>
	<g>
		<path d="M227.9,94.4c-11.9,0-20.6-9-20.6-20.7c0-11.9,8.6-20.9,20.5-20.9c7.5,0,13.7,3.7,16.5,9.2l13.3-7.5
			c-5.1-10.2-16.4-16.8-29.8-16.8c-20.5,0-36,15.5-36,36c0,20.5,15.7,35.8,36.1,35.8c14.4,0,26.5-7.5,31.8-18.9l-14-6.4
			C242.5,90.6,235.9,94.4,227.9,94.4"></path>
		<path d="M299.7,94.4c-11.4,0-20.2-9-20.2-20.7c0-11.9,8.8-20.9,20.2-20.9c11.4,0,20.3,9,20.3,20.9C320,85.4,311.1,94.4,299.7,94.4
			 M299.7,37.7c-20.2,0-35.7,15.5-35.7,36c0,20.5,15.5,35.8,35.7,35.8c20.2,0,35.8-15.4,35.8-35.8C335.5,53.2,319.9,37.7,299.7,37.7"></path>
		<path d="M346.5,52.8v55.3h15.7V55.4c0-0.8,0.6-1.4,1.4-1.4H386v-15h-25.8C352.7,39.1,346.5,45.2,346.5,52.8"></path>
		<path d="M433.2,37.7c-9.2,0-16.5,4.5-20.9,12.3V39.1h-15.7v69h15.7V70.7c0-10.9,6.8-17.9,17.1-17.9c10,0,16.7,7.1,16.7,17.9v37.4
			h15.8V68.7C461.8,49.6,450.8,37.7,433.2,37.7"></path>
		<path d="M488.9,65.4c2.4-8.6,9.2-13.4,18.5-13.4c9.5,0,16.2,5.6,17.5,13.4H488.9z M508.2,37.7c-19.9,0-35.6,15.5-35.6,35.6
			c0,20.6,15.9,36.3,35.8,36.3c14.3,0,25.8-5.6,30.9-15l-12.6-8c-3.2,5.4-10.3,8.8-18.1,8.8c-10.7,0-18.1-6.2-20.2-16.5h52.2
			c0.4-2,0.6-6.4,0.6-8.2C541.4,52.1,526.9,37.7,508.2,37.7"></path>
		<path d="M552.4,52.8v55.3h15.7V55.4c0-0.8,0.6-1.4,1.4-1.4h22.5v-15h-25.8C558.5,39.1,552.4,45.2,552.4,52.8"></path>
		<path d="M612.4,58.2c0-4.5,3.8-7.3,9.6-7.3s15.7,2.5,21.2,7.3l6.2-12.1c-6.2-5.6-16.2-8.3-25.8-8.3c-15.8,0-26.8,8.9-26.8,21.7
			c0,25.5,38.4,16.7,38.4,29.4c0,4.4-4.5,7.6-11.4,7.6c-7.8,0-17.9-3.5-23.3-8.6l-6.2,11.9c6.8,6.1,18.8,10,29.9,10
			c15.8,0,27-9,27-21.5C651,62.7,612.4,69.9,612.4,58.2"></path>
		<path d="M747.1,94.4c-11.4,0-20.2-9-20.2-20.7c0-11.9,8.8-20.9,20.2-20.9c11.4,0,20.3,9,20.3,20.9
			C767.4,85.4,758.5,94.4,747.1,94.4 M747.1,37.7c-20.2,0-35.7,15.5-35.7,36c0,20.5,15.5,35.8,35.7,35.8c20.2,0,35.8-15.4,35.8-35.8
			C782.9,53.2,767.3,37.7,747.1,37.7"></path>
		<path d="M830.5,37.7c-9.2,0-16.5,4.5-20.9,12.3V39.1h-15.7v69h15.7V70.7c0-10.9,6.8-17.9,17.1-17.9c10,0,16.7,7.1,16.7,17.9v37.4
			h15.8V68.7C859.1,49.6,848.1,37.7,830.5,37.7"></path>
		<path d="M886.2,65.4c2.4-8.6,9.2-13.4,18.5-13.4c9.5,0,16.2,5.6,17.5,13.4H886.2z M938.7,70.6c0-18.5-14.5-32.9-33.2-32.9
			c-19.9,0-35.6,15.5-35.6,35.6c0,20.6,15.9,36.3,35.8,36.3c14.3,0,25.8-5.6,30.9-15l-12.6-8c-3.2,5.4-10.3,8.8-18.1,8.8
			c-10.7,0-18.1-6.2-20.2-16.5h52.2C938.6,76.8,938.7,72.4,938.7,70.6"></path>
		<path d="M685.1,91.2v-9.6V54.1h18.1v-15h-18.1V20.6h-15.7v18.5h-13.3v15h13.3v38.5v2c0,7.6,6.1,13.7,13.7,13.7h2H706V92.6h-19.6
			C685.7,92.6,685.1,91.9,685.1,91.2"></path>
	</g>
</g>
<path d="M145.6,84.4c-5.4,35.1-35.7,62.1-72.4,62.1C32.8,146.4,0,113.7,0,73.2S32.8,0,73.2,0c36.6,0,67,26.9,72.4,62.1
	c-7.5,6-16.9,9.5-27.2,9.5c-24,0-43.6-19.1-43.6-42.9c0-0.4,0-2.3-1.6-2.3s-1.6,2-1.6,2.3c0,23-18.9,42.9-42.9,42.9
	c-0.3,0-2.2-0.1-2.2,1.6c0,1.7,2,1.6,2.2,1.6c23.1,0,42.9,19.1,42.9,42.9c0,0.4,0.2,2.3,1.6,2.3s1.6-1.7,1.6-2.3
	c0-23.5,19.4-42.9,43.6-42.9C128.5,74.8,138.1,78.4,145.6,84.4z" class="st0"></path>
</svg>
